<svg id="Group" xmlns="http://www.w3.org/2000/svg" width="20" height="20" viewBox="0 0 20 20">
  <path id="Path" d="M0,0H20V20H0Z" fill="none"/>
  <circle id="Oval" cx="3.333" cy="3.333" r="3.333" transform="translate(4.167 2.5)" fill="none" stroke="#202842" stroke-linecap="round" stroke-linejoin="round" stroke-miterlimit="10" stroke-width="1.25"/>
  <path id="Path-2" data-name="Path" d="M0,5V3.333A3.333,3.333,0,0,1,3.333,0H6.667A3.333,3.333,0,0,1,10,3.333V5" transform="translate(2.5 12.5)" fill="none" stroke="#202842" stroke-linecap="round" stroke-linejoin="round" stroke-miterlimit="10" stroke-width="1.25"/>
  <path id="Path-3" data-name="Path" d="M0,0A3.333,3.333,0,0,1,2.507,3.229,3.333,3.333,0,0,1,0,6.458" transform="translate(13.333 2.608)" fill="none" stroke="#202842" stroke-linecap="round" stroke-linejoin="round" stroke-miterlimit="10" stroke-width="1.25"/>
  <path id="Path-4" data-name="Path" d="M2.5,4.875V3.208A3.333,3.333,0,0,0,0,0" transform="translate(15 12.625)" fill="none" stroke="#202842" stroke-linecap="round" stroke-linejoin="round" stroke-miterlimit="10" stroke-width="1.25"/>
</svg>
